<svg id="instagram" xmlns="http://www.w3.org/2000/svg" width="40.414" height="40.414" viewBox="0 0 40.414 40.414">
  <path id="Path_3" data-name="Path 3" d="M20.207,3.592a61.959,61.959,0,0,1,8.083.225,10.414,10.414,0,0,1,3.817.674,7.885,7.885,0,0,1,3.817,3.817,10.414,10.414,0,0,1,.674,3.817c0,2.021.225,2.694.225,8.083A61.958,61.958,0,0,1,36.6,28.29a10.414,10.414,0,0,1-.674,3.817,7.885,7.885,0,0,1-3.817,3.817,10.414,10.414,0,0,1-3.817.674c-2.021,0-2.694.225-8.083.225a61.958,61.958,0,0,1-8.083-.225,10.414,10.414,0,0,1-3.817-.674A7.885,7.885,0,0,1,4.49,32.106a10.414,10.414,0,0,1-.674-3.817c0-2.021-.225-2.694-.225-8.083a61.958,61.958,0,0,1,.225-8.083A10.414,10.414,0,0,1,4.49,8.307,8.064,8.064,0,0,1,6.062,6.062,3.8,3.8,0,0,1,8.307,4.49a10.414,10.414,0,0,1,3.817-.674,61.958,61.958,0,0,1,8.083-.225m0-3.592A66.34,66.34,0,0,0,11.9.225a13.861,13.861,0,0,0-4.939.9A8.789,8.789,0,0,0,3.368,3.368,8.789,8.789,0,0,0,1.123,6.96a10.23,10.23,0,0,0-.9,4.939A66.34,66.34,0,0,0,0,20.207a66.34,66.34,0,0,0,.225,8.307,13.861,13.861,0,0,0,.9,4.939,8.789,8.789,0,0,0,2.245,3.592A8.789,8.789,0,0,0,6.96,39.291a13.861,13.861,0,0,0,4.939.9,66.339,66.339,0,0,0,8.307.225,66.339,66.339,0,0,0,8.307-.225,13.861,13.861,0,0,0,4.939-.9,9.42,9.42,0,0,0,5.838-5.838,13.861,13.861,0,0,0,.9-4.939c0-2.245.225-2.919.225-8.307a66.339,66.339,0,0,0-.225-8.307,13.861,13.861,0,0,0-.9-4.939,8.789,8.789,0,0,0-2.245-3.592,8.789,8.789,0,0,0-3.592-2.245,13.861,13.861,0,0,0-4.939-.9A66.339,66.339,0,0,0,20.207,0m0,9.879A10.162,10.162,0,0,0,9.879,20.207,10.328,10.328,0,1,0,20.207,9.879m0,17.064a6.615,6.615,0,0,1-6.736-6.736,6.615,6.615,0,0,1,6.736-6.736,6.615,6.615,0,0,1,6.736,6.736,6.615,6.615,0,0,1-6.736,6.736M30.984,6.96a2.47,2.47,0,1,0,2.47,2.47,2.492,2.492,0,0,0-2.47-2.47" fill="#a0a5a7" fill-rule="evenodd"/>
</svg>
