<svg id="Group_277" data-name="Group 277" xmlns="http://www.w3.org/2000/svg" xmlns:xlink="http://www.w3.org/1999/xlink" width="48.959" height="40.416" viewBox="0 0 48.959 40.416">
  <defs>
    <clipPath id="clip-path">
      <rect id="Rectangle_440" data-name="Rectangle 440" width="48.959" height="40.415" fill="#a0a5a7"/>
    </clipPath>
  </defs>
  <g id="Group_276" data-name="Group 276" transform="translate(0 0)" clip-path="url(#clip-path)">
    <path id="Path_271" data-name="Path 271" d="M48.6,5.024a1.434,1.434,0,0,0-1.119-.548,2.292,2.292,0,0,0-.879.214c.28-.522.56-1.047.834-1.574a1.528,1.528,0,0,0-.3-2.035,1.376,1.376,0,0,0-.911-.353,1.965,1.965,0,0,0-.864.243c-.039.019-.078.038-.118.054-.771.324-1.545.641-2.319.957q-1.022.419-2.041.841a.422.422,0,0,1-.149.04.742.742,0,0,1-.342-.2A10.814,10.814,0,0,0,33.435,0a11.128,11.128,0,0,0-4.167.846,10.509,10.509,0,0,0-6.8,9.144,11.134,11.134,0,0,0-.034,1.483c-.37-.04-.725-.082-1.073-.144A25.4,25.4,0,0,1,6.1,2.6a2.011,2.011,0,0,0-1.446-.865,1.221,1.221,0,0,0-.153.01c-.786.1-1.182.917-1.331,1.225a10.6,10.6,0,0,0,.12,10.251h0a1.421,1.421,0,0,0-.79.23,1.672,1.672,0,0,0-.661,1.587,10.911,10.911,0,0,0,3.832,8.048,1.286,1.286,0,0,0-.217.219,1.63,1.63,0,0,0-.13,1.638,10.61,10.61,0,0,0,4.9,5.864,13.76,13.76,0,0,0,1.37.652,17.23,17.23,0,0,1-7.82,1.849c-.62,0-1.255-.032-1.889-.094a2.974,2.974,0,0,0-.306-.018A1.471,1.471,0,0,0,.1,34.17,1.513,1.513,0,0,0,.944,36.1c.353.189.7.383,1.056.577l.056.032c.822.456,1.672.928,2.559,1.322a27.793,27.793,0,0,0,11.369,2.385h0c.919,0,1.856-.043,2.786-.127a26.341,26.341,0,0,0,15.051-6.1A28.631,28.631,0,0,0,44.239,11.724c0-.151,0-.151.1-.225a20.3,20.3,0,0,0,4.142-4.408l.058-.083A1.506,1.506,0,0,0,48.6,5.024M42.439,9.169a2.772,2.772,0,0,0-1.194,2.469A25.676,25.676,0,0,1,35.03,28.83a23.6,23.6,0,0,1-15.739,8.4,28.445,28.445,0,0,1-3.38.208,24.473,24.473,0,0,1-8.446-1.469,19.784,19.784,0,0,0,8.689-3.88,1.88,1.88,0,0,0,.678-1.677c-.138-.748-1.1-1.075-1.511-1.109A7.949,7.949,0,0,1,9.1,25.827l1.493-.178a3.52,3.52,0,0,0,.372-.072l.083-.019A1.72,1.72,0,0,0,12.2,24.83a1.3,1.3,0,0,0,.139-1.007,1.915,1.915,0,0,0-1.288-1.257,8.281,8.281,0,0,1-3.139-1.492,7.9,7.9,0,0,1-2.773-4.118c.678.122,1.338.24,2,.347a2.617,2.617,0,0,0,.43.04A1.433,1.433,0,0,0,9,16.389a1.6,1.6,0,0,0-.757-1.934A7.969,7.969,0,0,1,5.171,6.033l.245.228c.82.765,1.667,1.556,2.571,2.277a27.384,27.384,0,0,0,13.648,5.827c.667.089,1.446.188,2.222.232.057,0,.113.005.167.005a1.558,1.558,0,0,0,1.231-.494,1.7,1.7,0,0,0,.3-1.51A7.879,7.879,0,0,1,31.5,3.255a8.81,8.81,0,0,1,1.987-.238,7.606,7.606,0,0,1,5.364,2.276,2.156,2.156,0,0,0,1.5.682,2.2,2.2,0,0,0,.673-.111q.6-.2,1.2-.381a8.529,8.529,0,0,1-.716.523,1.57,1.57,0,0,0-.829,2.007,1.446,1.446,0,0,0,1.4.915,2.86,2.86,0,0,0,.6-.074l.2-.043c-.148.124-.3.245-.45.359" transform="translate(0 0)" fill="#a0a5a7"/>
  </g>
</svg>
