<svg id="instagram" xmlns="http://www.w3.org/2000/svg" width="56.46" height="40.414" viewBox="0 0 56.46 40.414">
  <g id="Youtube">
    <path id="Path_3" data-name="Path 3" d="M20.207,3.592c5.388,0,22.108,0,24.129.225a10.414,10.414,0,0,1,3.817.674,7.885,7.885,0,0,1,3.817,3.817,10.414,10.414,0,0,1,.674,3.817c0,2.021.225,2.694.225,8.083a61.959,61.959,0,0,1-.225,8.083,10.414,10.414,0,0,1-.674,3.817,7.885,7.885,0,0,1-3.817,3.817,10.414,10.414,0,0,1-3.817.674c-2.021,0-18.74.225-24.129.225a61.958,61.958,0,0,1-8.083-.225,10.414,10.414,0,0,1-3.817-.674A7.885,7.885,0,0,1,4.49,32.106a10.414,10.414,0,0,1-.674-3.817c0-2.021-.225-2.694-.225-8.083a61.958,61.958,0,0,1,.225-8.083A10.414,10.414,0,0,1,4.49,8.307,8.064,8.064,0,0,1,6.062,6.062,3.8,3.8,0,0,1,8.307,4.49a10.414,10.414,0,0,1,3.817-.674,61.958,61.958,0,0,1,8.083-.225m0-3.592A66.34,66.34,0,0,0,11.9.225a13.861,13.861,0,0,0-4.939.9A8.789,8.789,0,0,0,3.368,3.368,8.789,8.789,0,0,0,1.123,6.96a10.23,10.23,0,0,0-.9,4.939A66.34,66.34,0,0,0,0,20.207a66.34,66.34,0,0,0,.225,8.307,13.861,13.861,0,0,0,.9,4.939,8.789,8.789,0,0,0,2.245,3.592A8.789,8.789,0,0,0,6.96,39.291a13.861,13.861,0,0,0,4.939.9,66.339,66.339,0,0,0,8.307.225c5.388,0,22.333,0,24.353-.225a13.861,13.861,0,0,0,4.939-.9,9.42,9.42,0,0,0,5.838-5.838,13.861,13.861,0,0,0,.9-4.939c0-2.245.225-2.919.225-8.307a66.34,66.34,0,0,0-.225-8.307,13.861,13.861,0,0,0-.9-4.939,8.789,8.789,0,0,0-2.245-3.592A8.789,8.789,0,0,0,49.5,1.123a13.861,13.861,0,0,0-4.939-.9C42.539,0,25.6,0,20.207,0" fill="#a0a5a7" fill-rule="evenodd"/>
    <g id="Polygon_1" data-name="Polygon 1" transform="translate(36.713 9.629) rotate(90)" fill="none">
      <path d="M10.578,0,21.155,14.04H0Z" stroke="none"/>
      <path d="M 10.57756614685059 4.985530853271484 L 6.016377449035645 11.03958320617676 L 15.13875389099121 11.03958320617676 L 10.57756614685059 4.985530853271484 M 10.57756614685059 3.814697265625e-06 L 21.15513610839844 14.03958320617676 L -3.814697265625e-06 14.03958320617676 L 10.57756614685059 3.814697265625e-06 Z" stroke="none" fill="#a0a5a7"/>
    </g>
  </g>
</svg>
