<svg id="Star_Alliance_logo" data-name="Star Alliance logo" xmlns="http://www.w3.org/2000/svg" width="223.237" height="20" viewBox="0 0 223.237 20">
  <path id="Path_93" data-name="Path 93" d="M248.23,97.611a25.815,25.815,0,0,1,2.483-2.97,24.731,24.731,0,0,1,2.891-2.588l-1.08,4.329Z" transform="translate(-47.168 -92.053)" fill="#d2d2d4"/>
  <path id="Path_94" data-name="Path 94" d="M255.735,99.224a26.752,26.752,0,0,1-3.822-.663,27.1,27.1,0,0,1-3.683-1.206l4.294-1.229Z" transform="translate(-47.168 -91.797)" fill="#4d494b"/>
  <path id="Path_95" data-name="Path 95" d="M253.35,92.053a27.5,27.5,0,0,1,1.331,3.632,26.59,26.59,0,0,1,.8,3.8l-3.212-3.1Z" transform="translate(-46.913 -92.053)" fill="#8a888a"/>
  <path id="Path_96" data-name="Path 96" d="M247.023,106.059a25.224,25.224,0,0,1-2.055-3.281,26.385,26.385,0,0,1-1.582-3.54l3.788,2.368Z" transform="translate(-47.472 -91.601)" fill="#8a888a"/>
  <path id="Path_97" data-name="Path 97" d="M250.9,99.487a27.6,27.6,0,0,1-1.811,3.42,26.726,26.726,0,0,1-2.281,3.136l.152-4.453Z" transform="translate(-47.257 -91.586)" fill="#4d494b"/>
  <path id="Path_98" data-name="Path 98" d="M243.387,99.247a26.219,26.219,0,0,1,3.866-.138,27.851,27.851,0,0,1,3.861.4l-3.94,2.1Z" transform="translate(-47.472 -91.612)" fill="#d2d2d4"/>
  <path id="Path_99" data-name="Path 99" d="M254.779,109.692a26.906,26.906,0,0,1-3.749.945,27.268,27.268,0,0,1-3.86.4l3.416-2.872Z" transform="translate(-47.234 -91.04)" fill="#4d494b"/>
  <path id="Path_100" data-name="Path 100" d="M249.655,104.034a27.568,27.568,0,0,1,2.69,2.779,26.333,26.333,0,0,1,2.278,3.139l-4.193-1.523Z" transform="translate(-47.078 -91.301)" fill="#8a888a"/>
  <path id="Path_101" data-name="Path 101" d="M247.17,111.3a26.209,26.209,0,0,1,2.641-7.266l.775,4.394Z" transform="translate(-47.234 -91.301)" fill="#d2d2d4"/>
  <path id="Path_102" data-name="Path 102" d="M260.573,103.659a28.329,28.329,0,0,1-.271,3.869,26.345,26.345,0,0,1-.81,3.8l-1.671-4.14Z" transform="translate(-46.564 -91.324)" fill="#8a888a"/>
  <path id="Path_103" data-name="Path 103" d="M253.659,106.557a27.731,27.731,0,0,1,7.175-2.9l-2.752,3.524Z" transform="translate(-46.826 -91.324)" fill="#d2d2d4"/>
  <path id="Path_104" data-name="Path 104" d="M259.753,111.152a27.3,27.3,0,0,1-6.094-4.766l4.424.626Z" transform="translate(-46.826 -91.153)" fill="#4d494b"/>
  <path id="Path_105" data-name="Path 105" d="M256.638,96.044a27.915,27.915,0,0,1,3.589,1.449,25.7,25.7,0,0,1,3.361,1.951l-4.456.3Z" transform="translate(-46.639 -91.803)" fill="#8a888a"/>
  <path id="Path_106" data-name="Path 106" d="M257.178,103.77a28.024,28.024,0,0,1-.546-3.839,27.269,27.269,0,0,1,.011-3.888l2.495,3.7Z" transform="translate(-46.643 -91.802)" fill="#d2d2d4"/>
  <path id="Path_107" data-name="Path 107" d="M263.556,99.243a27.592,27.592,0,0,1-3.049,2.383,27.25,27.25,0,0,1-3.365,1.943l1.959-4.026Z" transform="translate(-46.607 -91.601)" fill="#4d494b"/>
  <path id="Path_108" data-name="Path 108" d="M265.721,100.637h.19v-1.69h.74v-.169h-1.663v.169h.733Z" transform="translate(-46.114 -91.631)" fill="#161615"/>
  <path id="Path_109" data-name="Path 109" d="M268.938,98.778h.286v1.859h-.2V99.031l-.829,1.606h-.172l-.824-1.61v1.61H267V98.778h.274l.834,1.621Z" transform="translate(-45.987 -91.63)" fill="#161615"/>
  <path id="Path_110" data-name="Path 110" d="M187.939,98.57h1.211v8.247h-.85V99.695h-.024l-3.635,7.122h-.782l-3.622-7.136h-.02v7.136h-.852V98.57H180.6l3.672,7.173Z" transform="translate(-51.496 -91.643)" fill="#161615"/>
  <path id="Path_111" data-name="Path 111" d="M162.432,102.718A4.12,4.12,0,0,0,166.887,107a3.986,3.986,0,0,0,4.158-3.315l.025-.2h-.9l-.029.141a3.08,3.08,0,0,1-3.259,2.564,3.31,3.31,0,0,1-3.57-3.469,3.383,3.383,0,0,1,3.589-3.489,2.916,2.916,0,0,1,3.111,2.063l.041.139h.889l-.044-.214c-.416-1.772-1.858-2.79-4-2.79a4.23,4.23,0,0,0-4.474,4.291M173.708,98.6v8.209h6.628v-.8h-5.769v-3.05h5.479v-.792h-5.479V99.4h5.708v-.8Zm-14.793,0v6.854c-.521-.636-5.942-6.854-5.942-6.854h-.857v8.209h.842V99.967c.526.641,5.947,6.846,5.947,6.846h.861V98.6Zm-20.948,8.209h.867V98.6h-.867ZM130.3,98.6v8.209h5.9v-.8h-5.046V98.6Zm-7.752,0v8.209h5.92v-.8h-5.071V98.6Zm23.086,1.133c.261.569,1.525,3.343,1.71,3.756h-3.429c.19-.413,1.464-3.188,1.719-3.756m-.393-1.133-3.784,8.209h.952s1.056-2.346,1.15-2.532h4.132c.1.186,1.168,2.532,1.168,2.532h.944L146.04,98.6Zm-29.5,1.133c.255.569,1.517,3.343,1.709,3.756h-3.431c.2-.413,1.464-3.188,1.722-3.756m-.4-1.133-3.777,8.209h.949s1.059-2.346,1.152-2.532h4.135c.091.186,1.174,2.532,1.174,2.532h.933L116.135,98.6Zm-12.542.8c1.292,0,1.925.469,1.925,1.432,0,1.08-.671,1.61-2.048,1.61h-3.26V99.4Zm-4.233-.8v8.209h.85v-3.565h3.32c1.471,0,1.812.289,1.847,1.568.038,1.333.095,1.78.276,1.951l.057.046h.867l-.128-.251a5.53,5.53,0,0,1-.2-2.1,1.709,1.709,0,0,0-1.168-1.664,2.131,2.131,0,0,0,1.3-1.946c0-1.516-.926-2.25-2.833-2.25ZM92,99.736c.259.569,1.534,3.343,1.717,3.756H90.3c.188-.413,1.455-3.188,1.7-3.756M91.616,98.6l-3.777,8.209h.937s1.076-2.346,1.155-2.532h4.152c.082.186,1.148,2.532,1.148,2.532h.947L92.4,98.6Zm-11.225,0v.8h3.193v7.408h.84V99.4h3.19v-.8Zm-8.7,5.515a2.536,2.536,0,0,0,.7,1.9,4.509,4.509,0,0,0,3.182.962c.781-.007,3.5-.176,3.5-2.428,0-1.979-1.807-2.162-3.4-2.33h0c-1.638-.165-2.859-.338-2.859-1.459a1.3,1.3,0,0,1,.873-1.23,4.574,4.574,0,0,1,1.934-.319,3.02,3.02,0,0,1,2.016.616,1.516,1.516,0,0,1,.379,1.041l.821.007a2.252,2.252,0,0,0-.57-1.587,3.889,3.889,0,0,0-2.715-.842,4.286,4.286,0,0,0-3.039.965,1.786,1.786,0,0,0-.568,1.348c0,1.933,1.967,2.092,3.524,2.233a6.872,6.872,0,0,1,1.934.353,1.229,1.229,0,0,1,.8,1.236,1.335,1.335,0,0,1-.388.971,3.648,3.648,0,0,1-2.3.654,3.544,3.544,0,0,1-2.495-.714,1.831,1.831,0,0,1-.524-1.374Z" transform="translate(-58.264 -91.653)" fill="#161615"/>
  <path id="Path_112" data-name="Path 112" d="M61.506,103.482c.186-.408,1.456-3.187,1.71-3.748.255.56,1.533,3.335,1.717,3.748Zm2.1-4.888h-.777L59.058,106.8h.919s1.082-2.346,1.169-2.532h4.146c.082.186,1.147,2.532,1.147,2.532h.945Z" transform="translate(-59.058 -91.642)" fill="#161615"/>
  <path id="Path_113" data-name="Path 113" d="M191.063,98.609v8.213H197.7v-.8h-5.794v-3.045h5.5v-.8h-5.5V99.414h5.727v-.8Z" transform="translate(-50.761 -91.641)" fill="#161615"/>
  <path id="Path_114" data-name="Path 114" d="M208.324,98.57h1.213v8.254h-.847v-7.13h-.021l-3.637,7.13h-.795l-3.614-7.138H200.6v7.138h-.846V98.57h1.232l3.683,7.173Z" transform="translate(-50.214 -91.643)" fill="#161615"/>
  <path id="Path_115" data-name="Path 115" d="M212.317,102.941h3.792c.985,0,1.725.333,1.725,1.534,0,1.123-.829,1.569-1.929,1.569h-3.588Zm-.839,3.871h4.56c1.263,0,2.71-.628,2.71-2.337a1.94,1.94,0,0,0-1.731-2.012v-.02a1.756,1.756,0,0,0,1.411-1.775c0-1.176-.669-2.08-2.281-2.08h-4.669Zm.839-7.442h3.669c.931,0,1.6.315,1.6,1.326,0,1.1-.74,1.467-1.886,1.467h-3.382Z" transform="translate(-49.477 -91.642)" fill="#161615"/>
  <path id="Path_116" data-name="Path 116" d="M220.843,98.6v8.212h6.63v-.8H221.7v-3.048h5.48v-.8H221.7V99.4h5.708v-.8Z" transform="translate(-48.889 -91.641)" fill="#161615"/>
  <path id="Path_117" data-name="Path 117" d="M233.627,102.441H230.37V99.4h3.372c1.3,0,1.927.475,1.927,1.432,0,1.084-.672,1.608-2.042,1.608m2.975,4.114a6.118,6.118,0,0,1-.2-2.1,1.693,1.693,0,0,0-1.159-1.661,2.141,2.141,0,0,0,1.3-1.937c0-1.521-.931-2.254-2.84-2.254h-4.188v8.212h.856v-3.569h3.32c1.46,0,1.8.291,1.855,1.566.019,1.342.086,1.776.263,1.952l.052.051h.881Z" transform="translate(-48.344 -91.642)" fill="#161615"/>
</svg>
