<svg id="Tata_Logo_Reverse" data-name="Tata Logo_Reverse" xmlns="http://www.w3.org/2000/svg" xmlns:xlink="http://www.w3.org/1999/xlink" width="82.157" height="70.784" viewBox="0 0 82.157 70.784">
  <defs>
    <clipPath id="clip-path">
      <rect id="Rectangle_429" data-name="Rectangle 429" width="82.157" height="70.784" fill="#486aae"/>
    </clipPath>
  </defs>
  <g id="Group_230" data-name="Group 230" clip-path="url(#clip-path)">
    <path id="Path_256" data-name="Path 256" d="M183.691,40.518h-3.226v-.077q.157-11.349.315-22.7c.326-2.04.281-6.336-.866-7.1-.984-.658-5.7-.335-7.319-.077-6.9,1.1-13.407,1.708-19.595,3.166V13.65C157.9,4.08,174.868-2.5,190.616.91c9.135,1.976,16.772,5.659,20.618,12.817-3.91-.781-8.022-1.511-12.119-2.316l-7.476-.849c-1.9-.31-7.034-.624-7.791.463-.838,1.2-.394,6.223-.393,8.261q.118,10.615.236,21.232" transform="translate(-140.96 0)" fill="#486aae" fill-rule="evenodd"/>
    <path id="Path_257" data-name="Path 257" d="M151.967,186.782c5.167-.033,4.322,3.421,3.463,7.412l-2.2,10.964-1.574,6.64h-.315c-8.287-2.6-14.542-5.2-18.572-11.89-1.449-2.406-2.841-6.869-1.574-10.5l6.689-1.313,6.846-.849,7.24-.463" transform="translate(-120.41 -172.361)" fill="#486aae" fill-rule="evenodd"/>
    <path id="Path_258" data-name="Path 258" d="M595.322,186.785a89.51,89.51,0,0,1,16.054,1.621l5.351,1,.157,1a13.226,13.226,0,0,1-1.18,8.261c-3.187,6.487-11.069,11.8-19.437,13.126v-.154l-1.1-4.633c-1.056-4.192-1.791-8.687-2.754-13.048-.32-1.451-1.141-4.68-.236-6.022.706-1.047,1.837-.647,3.148-1.158" transform="translate(-545.194 -172.364)" fill="#486aae" fill-rule="evenodd"/>
    <path id="Path_259" data-name="Path 259" d="M0,655.785l19.831.077q-.039,2.934-.079,5.868H14.086v14.206H5.9V661.73H0Z" transform="translate(0 -605.152)" fill="#486aae" fill-rule="evenodd"/>
    <path id="Path_260" data-name="Path 260" d="M233.712,655.785h8.578l7.948,20.074h-8.027l-4.171-11.813h-.079l-4.092,11.813H226v-.077l7.712-20" transform="translate(-208.215 -605.152)" fill="#486aae" fill-rule="evenodd"/>
    <path id="Path_261" data-name="Path 261" d="M529.831,655.785v5.945h-5.666q-.039,7.1-.079,14.206H515.9V661.73l-5.9-.077q.039-2.934.079-5.868Z" transform="translate(-469.866 -605.152)" fill="#486aae" fill-rule="evenodd"/>
    <path id="Path_262" data-name="Path 262" d="M743.712,655.785h8.656l7.869,20.074h-8.027l-4.092-11.89-.157.077-4.013,11.813H736v-.077l7.712-20" transform="translate(-678.081 -605.152)" fill="#486aae" fill-rule="evenodd"/>
  </g>
</svg>
